name D:\school\WTK\thesis\model\3dpredictsim\Results\test_WL_v2\Fal_s1_bCst_PF_Natali2010_ls135_k_nonl200_kmtp_ig24_v4.mot
datacolumns 128
datarows 4
range 1.71572109 1.75003551
endheader
time	pelvis_tilt	pelvis_list	pelvis_rotation	pelvis_tx	pelvis_ty	pelvis_tz	hip_flexion_l	hip_adduction_l	hip_rotation_l	hip_flexion_r	hip_adduction_r	hip_rotation_r	knee_angle_l	knee_angle_r	ankle_angle_l	ankle_angle_r	subtalar_angle_l	subtalar_angle_r	tmt_angle_l	tmt_angle_r	mtp_angle_l	mtp_angle_r	lumbar_extension	lumbar_bending	lumbar_rotation	arm_flex_l	arm_add_l	arm_rot_l	arm_flex_r	arm_add_r	arm_rot_r	elbow_flex_l	elbow_flex_r	pro_sup_l	pro_sup_r	glut_med1_l/activation	glut_med2_l/activation	glut_med3_l/activation	glut_min1_l/activation	glut_min2_l/activation	glut_min3_l/activation	semimem_l/activation	semiten_l/activation	bifemlh_l/activation	bifemsh_l/activation	sar_l/activation	add_long_l/activation	add_brev_l/activation	add_mag1_l/activation	add_mag2_l/activation	add_mag3_l/activation	tfl_l/activation	pect_l/activation	grac_l/activation	glut_max1_l/activation	glut_max2_l/activation	glut_max3_l/activation	iliacus_l/activation	psoas_l/activation	quad_fem_l/activation	gem_l/activation	peri_l/activation	rect_fem_l/activation	vas_med_l/activation	vas_int_l/activation	vas_lat_l/activation	med_gas_l/activation	lat_gas_l/activation	soleus_l/activation	tib_post_l/activation	flex_dig_l/activation	flex_hal_l/activation	tib_ant_l/activation	per_brev_l/activation	per_long_l/activation	per_tert_l/activation	ext_dig_l/activation	ext_hal_l/activation	ercspn_l/activation	intobl_l/activation	extobl_l/activation	glut_med1_r/activation	glut_med2_r/activation	glut_med3_r/activation	glut_min1_r/activation	glut_min2_r/activation	glut_min3_r/activation	semimem_r/activation	semiten_r/activation	bifemlh_r/activation	bifemsh_r/activation	sar_r/activation	add_long_r/activation	add_brev_r/activation	add_mag1_r/activation	add_mag2_r/activation	add_mag3_r/activation	tfl_r/activation	pect_r/activation	grac_r/activation	glut_max1_r/activation	glut_max2_r/activation	glut_max3_r/activation	iliacus_r/activation	psoas_r/activation	quad_fem_r/activation	gem_r/activation	peri_r/activation	rect_fem_r/activation	vas_med_r/activation	vas_int_r/activation	vas_lat_r/activation	med_gas_r/activation	lat_gas_r/activation	soleus_r/activation	tib_post_r/activation	flex_dig_r/activation	flex_hal_r/activation	tib_ant_r/activation	per_brev_r/activation	per_long_r/activation	per_tert_r/activation	ext_dig_r/activation	ext_hal_r/activation	ercspn_r/activation	intobl_r/activation	extobl_r/activation	
          1.71572109	         -2.92976869	          1.84856242	         -5.47877842	          2.14465137	          0.92003986	          0.00297098	         29.57849758	          2.71842183	         -3.01188764	        -16.91963057	         -0.49091638	          6.17453008	        -10.84470958	         -7.01098955	          8.30350610	          0.35912434	         -3.37267267	          5.91834700	         -4.30629593	         -0.71480012	         -0.07746131	         23.11504121	         -1.57915856	          0.26929402	          1.95974164	         -5.80300424	        -13.45914157	          6.04352604	          4.41976285	        -13.44985618	         14.36783377	         18.15904175	         34.19549878	         86.51662706	         86.51662706	          0.09312582	          0.05000016	          0.05953179	          0.05000007	          0.05000010	          0.05000051	          0.13989740	          0.05953261	          0.17668452	          0.05953206	          0.05000081	          0.09621062	          0.17783075	          0.19276686	          0.13467447	          0.07958258	          0.05953213	          0.05000369	          0.10307953	          0.05953199	          0.05953199	          0.09036160	          0.05000011	          0.05000026	          0.23513501	          0.05008635	          0.05000030	          0.05000007	          0.05000030	          0.05000031	          0.05000024	          0.05953180	          0.05953181	          0.05953178	          0.05532750	          0.05000130	          0.05346367	          0.46602595	          0.24861057	          0.19012138	          0.09143384	          0.47755146	          0.06699340	          0.05953182	          0.14427519	          0.12058679	          0.33427487	          0.10048152	          0.07088820	          0.30035925	          0.19545440	          0.10670593	          0.05000067	          0.05000016	          0.05000013	          0.05522381	          0.10255435	          0.05000008	          0.05000008	          0.05000015	          0.05000048	          0.05000040	          0.30709205	          0.05000035	          0.05000036	          0.05025767	          0.05002662	          0.05000134	          0.42166273	          0.64279130	          0.05000044	          0.05000348	          0.07072712	          0.26647057	          0.05953361	          0.06018566	          0.05039698	          0.28284600	          0.38049236	          0.31220805	          0.28137675	          0.25144691	          0.33502652	          0.05000005	          0.05957671	          0.12178039	          0.05000024	          0.05000007	          0.05000027	          0.05000000	          0.05000001	          0.05000002	
          1.72715923	         -2.92943590	          1.92023753	         -5.78421603	          2.16182567	          0.91923615	          0.00279457	         29.01988039	          3.05105637	         -2.80705993	        -16.94256276	         -0.78663713	          5.93402930	        -10.92939848	         -8.64538593	          7.62020818	         -0.14328452	         -3.70298822	          6.75277639	         -4.38594480	         -1.60626763	         -0.06098703	         24.54917424	         -1.37932638	          0.08980779	          2.02763909	         -6.73695143	        -13.45272096	          5.88399775	          4.20267729	        -13.45422295	         14.80662120	         17.78146474	         35.35756140	         86.51662706	         86.51662706	          0.07821529	          0.05000089	          0.05000011	          0.05953236	          0.05953181	          0.05000062	          0.11749810	          0.05000074	          0.14839518	          0.05000052	          0.05000196	          0.11963710	          0.23530682	          0.22785227	          0.16140253	          0.08516480	          0.05000040	          0.07486606	          0.08657544	          0.05000038	          0.05000024	          0.08975137	          0.07088062	          0.06713373	          0.51126010	          0.17019599	          0.12776898	          0.08439295	          0.18732715	          0.18451633	          0.15885199	          0.05000002	          0.05000004	          0.05000000	          0.05000007	          0.05000069	          0.05000047	          0.55166893	          0.27061805	          0.15968091	          0.21160261	          0.52112223	          0.07930218	          0.05000005	          0.12117494	          0.10127934	          0.28076038	          0.08439319	          0.05953813	          0.25226813	          0.16415976	          0.08962101	          0.05000168	          0.05000035	          0.05000033	          0.05000043	          0.08613428	          0.08732818	          0.07813945	          0.05000226	          0.05000289	          0.05000169	          0.25792288	          0.07845017	          0.05000140	          0.05000119	          0.05000079	          0.05000091	          0.35414931	          0.53987256	          0.05000017	          0.05000103	          0.05940367	          0.22380533	          0.05000217	          0.11865731	          0.14220136	          0.23755882	          0.31957082	          0.27028185	          0.25818263	          0.21118761	          0.28138525	          0.05000002	          0.05948483	          0.11683030	          0.05000015	          0.05000003	          0.05000015	          0.05000004	          0.07662617	          0.05881107	
          1.73859737	         -2.92506566	          1.99440284	         -6.06138489	          2.17936274	          0.91845268	          0.00262560	         28.33808789	          3.32414614	         -2.54508520	        -16.92216908	         -1.08721139	          5.67837954	        -11.42472378	        -10.35318583	          6.96939257	         -0.74456227	         -4.03742871	          7.56148526	         -4.58080848	         -2.61800010	         -0.10667807	         25.87721953	         -1.15468304	         -0.10189618	          2.08553586	         -7.71187854	        -13.44993230	          5.76723485	          3.90863886	        -13.45819489	         15.18792151	         17.46231434	         36.48281877	         86.51662706	         86.51662706	          0.22742920	          0.05000009	          0.18503000	          0.05000053	          0.05000015	          0.05000026	          0.11812028	          0.08968045	          0.13501988	          0.05000006	          0.05000077	          0.10048176	          0.19763136	          0.19137044	          0.13556020	          0.09069403	          0.05000054	          0.06288013	          0.07271393	          0.05000068	          0.07591454	          0.07538124	          0.05953189	          0.05739059	          0.42940100	          0.14294554	          0.10731177	          0.07088059	          0.15733376	          0.15497298	          0.13341783	          0.05833460	          0.06712362	          0.05753284	          0.05076309	          0.05000069	          0.05000104	          0.46333988	          0.24298550	          0.15967687	          0.17772241	          0.60820973	          0.06660492	          0.05000000	          0.12541197	          0.08506326	          0.33480378	          0.07088081	          0.05000538	          0.21187699	          0.13787578	          0.07527160	          0.05000288	          0.05000192	          0.05000121	          0.05000015	          0.07234326	          0.12796812	          0.11583201	          0.05953307	          0.05953213	          0.05953251	          0.21662633	          0.07114905	          0.05009051	          0.05003952	          0.05015522	          0.05953131	          0.29744570	          0.53578018	          0.05206829	          0.05000102	          0.05000008	          0.18797132	          0.14350803	          0.13615273	          0.11943455	          0.19952268	          0.26840354	          0.22700635	          0.21684443	          0.17737393	          0.23633204	          0.05000004	          0.05000014	          0.14317651	          0.05000011	          0.05000012	          0.05000018	          0.05000005	          0.06435737	          0.05953211	
          1.75003551	         -2.91838355	          2.07042902	         -6.30420587	          2.19709924	          0.91770058	          0.00245478	         27.53301529	          3.54613587	         -2.27646755	        -16.84612045	         -1.38832808	          5.41653248	        -11.89226553	        -12.13440919	          6.30885019	         -1.45010695	         -4.39563038	          8.32567475	         -4.56747645	         -3.71087534	         -0.16876757	         26.99359815	         -0.92142396	         -0.30537096	          2.13387051	         -8.68830455	        -13.45163923	          5.70462234	          3.56095185	        -13.46415413	         15.52341691	         17.17684101	         37.56381586	         86.51662706	         86.51662706	          0.28298237	          0.24516986	          0.30955700	          0.20147889	          0.19337089	          0.22153402	          0.09920776	          0.07532183	          0.11340152	          0.08505448	          0.05000874	          0.08439340	          0.16598815	          0.16072982	          0.11385570	          0.12120934	          0.05000052	          0.05281266	          0.10957219	          0.17613546	          0.14082046	          0.10148265	          0.05000020	          0.05000012	          0.36064858	          0.12005829	          0.16711554	          0.05953174	          0.13214273	          0.13015995	          0.11205602	          0.05000027	          0.05953114	          0.05000002	          0.05000005	          0.05000038	          0.05000046	          0.58839132	          0.33486642	          0.18616973	          0.45789993	          0.53428649	          0.24342183	          0.06656504	          0.11337981	          0.07144357	          0.31157195	          0.05953193	          0.05000004	          0.38723543	          0.11580022	          0.06321972	          0.05000135	          0.05000013	          0.05000010	          0.05000040	          0.06076134	          0.13250278	          0.09728597	          0.05000123	          0.05000078	          0.05000083	          0.18194230	          0.05989201	          0.05000037	          0.05000069	          0.05000041	          0.05000033	          0.25183063	          0.51321196	          0.05000004	          0.05000030	          0.05000021	          0.15787482	          0.12053125	          0.14689034	          0.14059926	          0.16757661	          0.22542878	          0.19065979	          0.18212500	          0.14897423	          0.19849239	          0.06577215	          0.12523818	          0.12657011	          0.05953226	          0.11129231	          0.05005328	          0.06224192	          0.05405296	          0.05000029	
